HIERARCHY
ROOT hip
{
  OFFSET 0 0 0
  CHANNELS 6 Xposition Yposition Zposition Zrotation Yrotation Xrotation
  JOINT abdomen
  {
    OFFSET 0 20.6881 -0.73152
    CHANNELS 3 Zrotation Xrotation Yrotation
    JOINT chest
    {
      OFFSET 0 11.7043 -0.48768
      CHANNELS 3 Zrotation Xrotation Yrotation
      JOINT neck
      {
        OFFSET 0 22.1894 -2.19456
        CHANNELS 3 Zrotation Xrotation Yrotation
        JOINT head
        {
          OFFSET -0.24384 7.07133 1.2192
          CHANNELS 3 Zrotation Xrotation Yrotation
          JOINT leftEye
          {
            OFFSET 4.14528 8.04674 8.04672
            CHANNELS 3 Zrotation Xrotation Yrotation
            End Site
            {
              OFFSET 1 0 0
            }
          }
          JOINT rightEye
          {
            OFFSET -3.6576 8.04674 8.04672
            CHANNELS 3 Zrotation Xrotation Yrotation
            End Site
            {
              OFFSET 1 0 0
            }
          }
        }
      }
      JOINT rCollar
      {
        OFFSET -2.68224 19.2634 -4.8768
        CHANNELS 3 Zrotation Xrotation Yrotation
        JOINT rShldr
        {
          OFFSET -8.77824 -1.95073 1.46304
          CHANNELS 3 Zrotation Xrotation Yrotation
          JOINT rForeArm
          {
            OFFSET -28.1742 -1.7115 0.48768
            CHANNELS 3 Zrotation Xrotation Yrotation
            JOINT rHand
            {
              OFFSET -22.5879 0.773209 7.07136
              CHANNELS 3 Zrotation Xrotation Yrotation
              JOINT rThumb1
              {
                OFFSET -1.2192 -0.487915 3.41376
                CHANNELS 3 Zrotation Xrotation Yrotation
                JOINT rThumb2
                {
                  OFFSET -3.37035 -0.52449 3.41376
                  CHANNELS 3 Zrotation Xrotation Yrotation
                  End Site
                  {
                    OFFSET -1.78271 -1.18214 1.43049
                  }
                }
              }
              JOINT rIndex1
              {
                OFFSET -7.75947 0.938293 5.60832
                CHANNELS 3 Zrotation Xrotation Yrotation
                JOINT rIndex2
                {
                  OFFSET -2.54057 -0.884171 1.56538
                  CHANNELS 3 Zrotation Xrotation Yrotation
                  End Site
                  {
                    OFFSET -1.62519 -0.234802 1.16502
                  }
                }
              }
              JOINT rMid1
              {
                OFFSET -8.24714 1.18213 3.41376
                CHANNELS 3 Zrotation Xrotation Yrotation
                JOINT rMid2
                {
                  OFFSET -3.10165 -0.590103 1.0647
                  CHANNELS 3 Zrotation Xrotation Yrotation
                  End Site
                  {
                    OFFSET -2.48547 -0.328903 0.83742
                  }
                }
              }
              JOINT rRing1
              {
                OFFSET -8.82822 0.546677 1.51678
                CHANNELS 3 Zrotation Xrotation Yrotation
                JOINT rRing2
                {
                  OFFSET -2.60934 -0.819778 -0.0198488
                  CHANNELS 3 Zrotation Xrotation Yrotation
                  End Site
                  {
                    OFFSET -2.33842 -0.294052 0.168128
                  }
                }
              }
              JOINT rPinky1
              {
                OFFSET -8.27202 -0.0477905 -0.4584
                CHANNELS 3 Zrotation Xrotation Yrotation
                JOINT rPinky2
                {
                  OFFSET -1.82734 -0.647385 -0.700984
                  CHANNELS 3 Zrotation Xrotation Yrotation
                  End Site
                  {
                    OFFSET -1.69225 -0.51767 -0.607171
                  }
                }
              }
            }
          }
        }
      }
      JOINT lCollar
      {
        OFFSET 2.68224 19.2634 -4.8768
        CHANNELS 3 Zrotation Xrotation Yrotation
        JOINT lShldr
        {
          OFFSET 8.77824 -1.95073 1.46304
          CHANNELS 3 Zrotation Xrotation Yrotation
          JOINT lForeArm
          {
            OFFSET 28.1742 -1.7115 0.48768
            CHANNELS 3 Zrotation Xrotation Yrotation
            JOINT lHand
            {
              OFFSET 22.5879 0.773209 7.07136
              CHANNELS 3 Zrotation Xrotation Yrotation
              JOINT lThumb1
              {
                OFFSET 1.2192 -0.487915 3.41376
                CHANNELS 3 Zrotation Xrotation Yrotation
                JOINT lThumb2
                {
                  OFFSET 3.37035 -0.52449 3.41376
                  CHANNELS 3 Zrotation Xrotation Yrotation
                  End Site
                  {
                    OFFSET 1.78271 -1.18214 1.43049
                  }
                }
              }
              JOINT lIndex1
              {
                OFFSET 7.75947 0.938293 5.60832
                CHANNELS 3 Zrotation Xrotation Yrotation
                JOINT lIndex2
                {
                  OFFSET 2.54057 -0.884171 1.56538
                  CHANNELS 3 Zrotation Xrotation Yrotation
                  End Site
                  {
                    OFFSET 1.62519 -0.234802 1.16502
                  }
                }
              }
              JOINT lMid1
              {
                OFFSET 8.24714 1.18213 3.41376
                CHANNELS 3 Zrotation Xrotation Yrotation
                JOINT lMid2
                {
                  OFFSET 3.10165 -0.590103 1.0647
                  CHANNELS 3 Zrotation Xrotation Yrotation
                  End Site
                  {
                    OFFSET 2.48547 -0.328903 0.83742
                  }
                }
              }
              JOINT lRing1
              {
                OFFSET 8.82822 0.546677 1.51678
                CHANNELS 3 Zrotation Xrotation Yrotation
                JOINT lRing2
                {
                  OFFSET 2.60934 -0.819778 -0.0198488
                  CHANNELS 3 Zrotation Xrotation Yrotation
                  End Site
                  {
                    OFFSET 2.33842 -0.294052 0.168128
                  }
                }
              }
              JOINT lPinky1
              {
                OFFSET 8.27202 -0.0477905 -0.4584
                CHANNELS 3 Zrotation Xrotation Yrotation
                JOINT lPinky2
                {
                  OFFSET 1.82734 -0.647385 -0.700984
                  CHANNELS 3 Zrotation Xrotation Yrotation
                  End Site
                  {
                    OFFSET 1.69225 -0.51767 -0.607171
                  }
                }
              }
            }
          }
        }
      }
    }
  }
  JOINT rButtock
  {
    OFFSET -8.77824 4.35084 1.2192
    CHANNELS 3 Zrotation Xrotation Yrotation
    JOINT rThigh
    {
      OFFSET 0 -1.70687 -2.19456
      CHANNELS 3 Zrotation Xrotation Yrotation
      JOINT rShin
      {
        OFFSET 0 -36.8199 0.73152
        CHANNELS 3 Zrotation Xrotation Yrotation
        JOINT rFoot
        {
          OFFSET 0.73152 -45.1104 -5.12064
          CHANNELS 3 Zrotation Xrotation Yrotation
          End Site
          {
            OFFSET -1.1221 -3.69964 12.103
          }
        }
      }
    }
  }
  JOINT lButtock
  {
    OFFSET 8.77824 4.35084 1.2192
    CHANNELS 3 Zrotation Xrotation Yrotation
    JOINT lThigh
    {
      OFFSET 0 -1.70687 -2.19456
      CHANNELS 3 Zrotation Xrotation Yrotation
      JOINT lShin
      {
        OFFSET 0 -36.8199 0.73152
        CHANNELS 3 Zrotation Xrotation Yrotation
        JOINT lFoot
        {
          OFFSET -0.73152 -45.1104 -5.12064
          CHANNELS 3 Zrotation Xrotation Yrotation
          End Site
          {
            OFFSET 1.1221 -3.69964 12.103
          }
        }
      }
    }
  }
}
MOTION
Frames:	4
Frame Time:	0.00833333
8.82251 87.152 -18.9074 911.885 118.276 -875.535 -10.066 -12.9058 4.73337 -2.2687 -11.9516 1.7839 -7.13695 12.4135 14.337 18.1741 -15.7285 31.7002 -0.0 0.0 0.0 -0.0 0.0 0.0 8.49972e-14 2.96831e-12 4.96672e-13 79.3016 -1.48298 -47.364 -27.7186 -29.1218 65.8331 -0.599606 -21.4468 -3.16493 7.81737e-10 -2.34071e-09 6.21046e-10 1.34106e-09 -4.13378e-09 1.08697e-09 7.81743e-10 -2.34071e-09 6.21041e-10 7.73091 5.47488 0.417314 7.8174e-10 -2.34074e-09 6.21064e-10 2.90554 0.965183 0.102902 7.81743e-10 -2.34072e-09 6.2105e-10 10.2786 0.731801 0.0259123 7.8173e-10 -2.34072e-09 6.21056e-10 2.22167 -0.733487 -0.20892 8.48459e-14 2.96831e-12 4.9641e-13 -67.9634 66.2278 -23.8388 21.545 -52.0542 -110.317 0.0664401 -7.50621 1.06055 -2.56291e-09 2.67256e-10 2.00423e-09 -4.44105e-09 4.6861e-10 3.45442e-09 -2.56292e-09 2.67269e-10 2.00423e-09 -7.73091 5.47488 -0.417314 -2.56292e-09 2.67264e-10 2.00421e-09 -2.90554 0.965183 -0.102902 -2.56292e-09 2.67259e-10 2.00422e-09 -10.2786 0.731801 -0.0259123 -2.56291e-09 2.67257e-10 2.00422e-09 -2.22167 -0.733487 0.20892 -2.03217e-16 0.0 -3.88251e-19 -16.3712 -36.2588 -24.8385 -0.510575 47.0109 0.844637 -2.97259 -2.82612 -17.2009 2.03217e-16 0.0 3.88251e-19 0.585648 -22.8308 23.5395 0.275781 37.4467 -0.686346 3.17773 -9.04438 10.5574
8.07989 86.7823 -18.2552 908.26 127.323 -879.6 -10.0586 -13.7539 3.16892 -2.09808 -11.9255 1.33863 -7.49831 11.6246 13.1761 19.5315 -15.4881 29.7394 -0.0 0.0 0.0 -0.0 0.0 0.0 1.61563e-13 1.64424e-12 3.79471e-13 81.2604 -0.829296 -45.6975 -27.8979 -30.0087 67.2248 -0.60672 -21.5667 -3.18443 -1.52382e-10 2.09713e-09 -4.49983e-10 -2.53362e-10 3.49267e-09 -7.78109e-10 -1.52374e-10 2.09713e-09 -4.49985e-10 7.73091 5.47488 0.417314 -1.52377e-10 2.09711e-09 -4.49968e-10 2.90554 0.965183 0.102902 -1.52375e-10 2.09712e-09 -4.49978e-10 10.2786 0.731801 0.0259123 -1.5239e-10 2.09713e-09 -4.49974e-10 2.22167 -0.733487 -0.20892 1.61355e-13 1.64424e-12 3.7925e-13 -71.393 67.1715 -20.2848 22.1751 -51.4494 -108.63 0.0925181 -8.87377 1.25646 -1.63839e-09 -1.65234e-10 2.98269e-09 -2.85032e-09 -2.6207e-10 5.15127e-09 -1.6384e-09 -1.65224e-10 2.9827e-09 -7.73091 5.47488 -0.417314 -1.6384e-09 -1.65225e-10 2.98268e-09 -2.90554 0.965183 -0.102902 -1.6384e-09 -1.65229e-10 2.98269e-09 -10.2786 0.731801 -0.0259123 -1.63839e-09 -1.65232e-10 2.98269e-09 -2.22167 -0.733487 0.20892 -2.03217e-16 0.0 -3.88251e-19 -16.53 -36.7313 -28.5012 -0.538081 47.6182 0.820665 -2.00508 -0.807236 -13.889 2.03217e-16 0.0 3.88251e-19 2.41131 -22.5502 29.3377 0.306513 39.503 -0.73374 3.53494 -8.4416 12.149
7.13928 86.3418 -17.6052 906.244 136.184 -882.113 -9.68412 -14.4787 1.30337 -1.91573 -11.8594 0.794836 -7.9898 10.9178 11.6867 21.0512 -15.3122 27.1418 -0.0 0.0 0.0 -0.0 0.0 0.0 2.38111e-13 2.46279e-13 2.37177e-13 83.2467 0.20816 -43.8192 -28.0451 -30.8674 68.5999 -0.617124 -21.7407 -3.21275 -1.0881e-09 6.45578e-09 -1.48353e-09 -1.85111e-09 1.09899e-08 -2.57853e-09 -1.08808e-09 6.45578e-09 -1.48353e-09 7.73091 5.47488 0.417314 -1.08809e-09 6.45576e-09 -1.48352e-09 2.90554 0.965183 0.102902 -1.08809e-09 6.45577e-09 -1.48353e-09 10.2786 0.731801 0.0259123 -1.0881e-09 6.45578e-09 -1.48353e-09 2.22167 -0.733487 -0.20892 2.37854e-13 2.4628e-13 2.36996e-13 -75.8651 67.903 -15.6673 22.7817 -50.8205 -106.937 0.123826 -10.116 1.43625 -5.58239e-10 -7.19464e-10 3.77869e-09 -9.8904e-10 -1.20503e-09 6.53325e-09 -5.58255e-10 -7.19458e-10 3.77871e-09 -7.73091 5.47488 -0.417314 -5.58249e-10 -7.19455e-10 3.77869e-09 -2.90554 0.965183 -0.102902 -5.58252e-10 -7.19457e-10 3.77869e-09 -10.2786 0.731801 -0.0259123 -5.5824e-10 -7.19462e-10 3.77869e-09 -2.22167 -0.733487 0.20892 -2.03217e-16 0.0 -3.88251e-19 -15.7299 -37.0447 -30.9462 -0.55307 47.872 0.778562 -1.23379 1.30261 -10.1971 2.03217e-16 0.0 3.88251e-19 4.75677 -22.3358 34.427 0.360612 42.0191 -0.787036 3.63428 -7.07173 13.5078
5.9436 86.5212 -16.8178 904.548 144.681 -884.078 -9.01564 -14.9154 -0.699989 -1.74266 -11.7916 0.196767 -8.61656 10.4853 9.88925 22.3633 -15.3095 23.8531 -0.0 0.0 0.0 -0.0 0.0 0.0 2.76854e-13 -6.34521e-13 1.27272e-13 85.4703 1.9411 -41.8085 -28.1585 -31.6595 69.9057 -0.626435 -21.8943 -3.23784 -1.59032e-09 8.85963e-09 -1.99476e-09 -2.70934e-09 1.51337e-08 -3.47018e-09 -1.59031e-09 8.85963e-09 -1.99476e-09 7.73091 5.47488 0.417314 -1.59032e-09 8.85962e-09 -1.99476e-09 2.90554 0.965183 0.102902 -1.59031e-09 8.85962e-09 -1.99476e-09 10.2786 0.731801 0.0259123 -1.59033e-09 8.85963e-09 -1.99476e-09 2.22167 -0.733487 -0.20892 2.76581e-13 -6.34521e-13 1.27123e-13 -80.9373 68.2157 -10.3492 23.3662 -50.1727 -105.231 0.147321 -10.8764 1.54739 2.27521e-10 -1.17879e-09 3.94525e-09 3.67805e-10 -1.99296e-09 6.82506e-09 2.27503e-10 -1.17878e-09 3.94526e-09 -7.73091 5.47488 -0.417314 2.2751e-10 -1.17878e-09 3.94525e-09 -2.90554 0.965183 -0.102902 2.27508e-10 -1.17878e-09 3.94524e-09 -10.2786 0.731801 -0.0259123 2.27518e-10 -1.17879e-09 3.94525e-09 -2.22167 -0.733487 0.20892 -2.03217e-16 0.0 -3.88251e-19 -13.7602 -37.2225 -31.3298 -0.553612 47.7897 0.729318 -0.845688 2.80671 -7.33191 2.03217e-16 0.0 3.88251e-19 7.29669 -22.3032 37.7967 0.448527 44.8751 -0.839553 3.25534 -4.40589 14.4985
